<svg width="352" height="273" viewBox="0 0 352 273" fill="none" xmlns="http://www.w3.org/2000/svg">
<path d="M11 11L341 11" stroke="#1F1C1B" stroke-width="21" stroke-linecap="round"/>
<path d="M11 50.5H341" stroke="#1F1C1B" stroke-width="21" stroke-linecap="round"/>
<path d="M11 87.5H341" stroke="#1F1C1B" stroke-width="21" stroke-linecap="round"/>
<path d="M11 130.5H341" stroke="#1F1C1B" stroke-width="21" stroke-linecap="round"/>
<path d="M11 240.427C14.6637 239.694 18.1502 235.291 20.8238 233.08C31.0632 224.613 41.6919 216.53 52.26 208.478C69.2072 195.566 77.3306 228.08 79.8521 240.427C81.6601 249.28 78.445 269.551 91.3844 267.933C105.77 266.135 119.065 256.725 130.765 248.884C139.314 243.154 152.957 237.045 159.724 229.151C164.28 223.836 149.582 240.434 149.388 247.431C149.088 258.209 179.044 246.251 183.728 245.21C198.439 241.941 206.99 250.903 222.682 252.044C235.998 253.013 257.421 254.505 269.494 247.261C270.697 246.539 266.61 246.577 266.248 246.577" stroke="#1F1C1B" stroke-width="9" stroke-linecap="round"/>
</svg>
