<svg width="352" height="273" viewBox="0 0 352 273" fill="none" xmlns="http://www.w3.org/2000/svg">
<path d="M11 10.5L341 10.5" stroke="#CFD0D1" stroke-width="21" stroke-linecap="round"/>
<path d="M11 50H341" stroke="#CFD0D1" stroke-width="21" stroke-linecap="round"/>
<path d="M11 87H341" stroke="#CFD0D1" stroke-width="21" stroke-linecap="round"/>
<path d="M11 130H341" stroke="#CFD0D1" stroke-width="21" stroke-linecap="round"/>
<path d="M11 239.927C14.6637 239.194 18.1502 234.791 20.8238 232.58C31.0632 224.113 41.6919 216.03 52.26 207.978C69.2072 195.066 77.3306 227.58 79.8521 239.927C81.6601 248.78 78.445 269.051 91.3844 267.433C105.77 265.635 119.065 256.225 130.765 248.384C139.314 242.654 152.957 236.545 159.724 228.651C164.28 223.336 149.582 239.934 149.388 246.931C149.088 257.709 179.044 245.751 183.728 244.71C198.439 241.441 206.99 250.403 222.682 251.544C235.998 252.513 257.421 254.005 269.494 246.761C270.697 246.039 266.61 246.077 266.248 246.077" stroke="#CFD0D1" stroke-width="9" stroke-linecap="round"/>
</svg>
